<?xml version="1.0" encoding="UTF-8" standalone="no"?>
<!DOCTYPE svg PUBLIC "-//W3C//DTD SVG 1.1//EN" "http://www.w3.org/Graphics/SVG/1.1/DTD/svg11.dtd">
<!-- Generated by Microsoft Visio, SVG Export nrf_tbr_app_overview.svg Page-1 -->
<svg xmlns="http://www.w3.org/2000/svg" xmlns:xlink="http://www.w3.org/1999/xlink" xmlns:ev="http://www.w3.org/2001/xml-events"
		width="5.89574in" height="2.57791in" viewBox="0 0 424.493 185.609" xml:space="preserve" color-interpolation-filters="sRGB"
		class="st19">
	<style type="text/css">
	<![CDATA[
		.st1 {fill:#6ad1e3;stroke:#feffff;stroke-width:1}
		.st2 {fill:#feffff;font-family:Arial;font-size:0.833336em}
		.st3 {fill:#6ad1e3;stroke:#6ad1e3;stroke-linecap:round;stroke-linejoin:round;stroke-width:0.25}
		.st4 {fill:#00a9ce;stroke:#feffff;stroke-width:1}
		.st5 {fill:#0077c8;stroke:#ffffff;stroke-width:1}
		.st6 {fill:#ffffff}
		.st7 {stroke:#ffffff;stroke-width:1}
		.st8 {fill:#0077c8;stroke:none;stroke-width:6.375}
		.st9 {fill:#00a9ce;stroke:none;stroke-width:1}
		.st10 {fill:#ffffff;font-family:Arial;font-size:0.833336em}
		.st11 {font-size:1em}
		.st12 {marker-end:url(#mrkr4-31);marker-start:url(#mrkr4-29);stroke:#0077c8;stroke-linecap:butt;stroke-width:1}
		.st13 {fill:#0077c8;fill-opacity:1;stroke:#0077c8;stroke-opacity:1;stroke-width:0.35714285714286}
		.st14 {fill:#ffffff;stroke:none;stroke-linecap:butt;stroke-width:7.2}
		.st15 {fill:#0077c8;font-family:Arial;font-size:0.666664em}
		.st16 {marker-start:url(#mrkr4-29);stroke:#0077c8;stroke-linecap:butt;stroke-width:1}
		.st17 {marker-end:url(#mrkr4-31);stroke:#0077c8;stroke-linecap:butt;stroke-width:1}
		.st18 {fill:#00a9ce;stroke:none;stroke-width:6.375}
		.st19 {fill:none;fill-rule:evenodd;font-size:12px;overflow:visible;stroke-linecap:square;stroke-miterlimit:3}
	]]>
	</style>

	<defs id="Markers">
		<g id="lend4">
			<path d="M 2 1 L 0 0 L 2 -1 L 2 1 " style="stroke:none"/>
		</g>
		<marker id="mrkr4-29" class="st13" refX="5.24" orient="auto" markerUnits="strokeWidth" overflow="visible">
			<use xlink:href="#lend4" transform="scale(2.8) "/>
		</marker>
		<marker id="mrkr4-31" class="st13" refX="-5.6" orient="auto" markerUnits="strokeWidth" overflow="visible">
			<use xlink:href="#lend4" transform="scale(-2.8,-2.8) "/>
		</marker>
	</defs>
	<g>
		<title>Page-1</title>
		<g id="shape1000-1" transform="translate(311.525,-48.8378)">
			<title>Circle.1000</title>
			<desc>Thread network</desc>
			<path d="M0 129.63 A55.9843 55.9843 0 0 1 111.97 129.63 A55.9843 55.9843 0 1 1 0 129.63 Z" class="st1"/>
			<text x="21.25" y="100.64" class="st2">Thread network</text>		</g>
		<g id="group5-4" transform="translate(7.79232,-145.924)">
			<title>Cloud</title>
			<g id="shape6-5">
				<title>Sheet.6</title>
				<path d="M58.53 166.25 C58.29 166.25 57.97 166.25 57.73 166.25 C57.73 166.25 57.73 166.25 57.73 166.25 C57.73 162.31
							 55.81 158.7 52.7 156.45 C49.51 154.2 45.43 153.64 41.76 154.92 C38.73 148.98 32.02 145.92 25.63 147.45
							 C19.24 148.98 14.61 154.76 14.61 161.43 C14.61 161.43 14.61 161.51 14.61 161.59 C10.22 160.87 5.83 162.71
							 3.11 166.25 C0.48 169.86 0 174.6 1.84 178.62 C3.75 182.64 7.75 185.29 12.14 185.53 L12.14 185.61 L58.45
							 185.61 C63.72 185.61 68.03 181.27 68.03 175.97 C68.03 170.67 63.8 166.25 58.53 166.25 Z" class="st3"/>
			</g>
		</g>
		<g id="group7-7" transform="translate(16.2963,-79.3102)">
			<title>Smart phone</title>
			<g id="shape8-8" transform="translate(12.0307,0)">
				<title>Sheet.8</title>
				<path d="M0 182.43 C0 183.55 0.91 184.59 2.02 184.74 C2.02 184.74 8.6 185.61 13.48 185.61 C18.36 185.61 24.95 184.74
							 24.95 184.74 C26.05 184.59 26.96 183.55 26.96 182.43 L26.96 137.76 C26.96 136.64 26.05 135.6 24.95 135.46
							 C24.95 135.46 18.49 134.59 13.48 134.59 C8.6 134.59 2.02 135.46 2.02 135.46 C0.91 135.61 0 136.64 0
							 137.76 L0 182.43 Z" class="st4"/>
			</g>
			<g id="shape9-10" transform="translate(14.0652,-6.26528)">
				<title>Sheet.9</title>
				<rect x="0" y="148.104" width="22.8931" height="37.505" class="st5"/>
			</g>
			<g id="shape10-12" transform="translate(21.3069,-2.5448)">
				<title>Sheet.10</title>
				<path d="M1.81 184.7 a0.907264 0.907264 -180 1 0 -1.81453 0 a0.907264 0.907264 -180 1 0 1.81453 0 ZM5.11 184.7 a0.907264
							 0.907264 -180 1 0 -1.81453 0 a0.907264 0.907264 -180 1 0 1.81453 0 ZM8.42 184.7 a0.907795 0.907795 -180
							 1 0 -1.81559 0 a0.907795 0.907795 -180 1 0 1.81559 0 Z" class="st6"/>
				<path d="M0.84 141.3 L7.58 141.3" class="st7"/>
			</g>
		</g>
		<g id="group56-15" transform="translate(335.336,-66.3785)">
			<title>Network</title>
			<g id="shape57-16">
				<title>Sheet.57</title>
				<path d="M62.42 146.33 C63.84 149.83 62.17 153.77 58.82 155.31 C55.98 156.5 52.72 155.48 50.96 153.08 L39.92 157.7
							 C40 158.04 40 158.47 40 158.81 C40 160.78 39.42 162.49 38.33 163.95 L47.03 172.93 C49.62 171.39 52.97
							 171.73 55.14 173.95 C57.74 176.61 57.74 180.97 55.14 183.62 C52.55 186.27 48.28 186.27 45.69 183.62
							 C43.52 181.31 43.18 177.89 44.69 175.24 L35.82 166.17 C34.57 166.94 33.14 167.37 31.64 167.37 L31.3
							 167.37 C29.8 167.37 28.38 166.94 27.12 166.17 L18.25 175.24 C19.76 177.89 19.42 181.31 17.25 183.54
							 C14.66 186.19 10.39 186.19 7.8 183.54 C5.2 180.88 5.2 176.52 7.8 173.87 C9.97 171.65 13.32 171.3 15.91
							 172.84 L24.61 163.86 C23.52 162.41 22.94 160.61 22.94 158.73 C22.94 158.39 22.94 157.96 23.02 157.62
							 L11.98 153 C10.22 155.48 6.96 156.42 4.12 155.22 C0.69 153.77 -0.9 149.75 0.52 146.24 C1.94 142.73 5.87
							 141.11 9.3 142.56 C12.23 143.76 13.82 146.84 13.4 149.83 L24.19 154.45 C25.36 152.4 27.37 150.86 29.8
							 150.43 L29.8 138.63 C26.95 137.86 24.78 135.21 24.78 132.04 C24.78 128.28 27.79 125.2 31.47 125.2 C35.15
							 125.2 38.16 128.28 38.16 132.04 C38.16 135.21 35.99 137.86 33.14 138.63 L33.14 150.52 C35.49 150.94
							 37.58 152.48 38.75 154.54 L49.54 149.92 C49.12 146.92 50.79 143.84 53.64 142.65 C57.07 141.19 61 142.82
							 62.42 146.33 Z" class="st8"/>
			</g>
		</g>
		<g id="shape61-18" transform="translate(165.467,-77.5019)">
			<title>Nordic Blue</title>
			<desc>Thread Border Router</desc>
			<rect x="0" y="130.969" width="85.0394" height="54.6402" class="st9"/>
			<text x="26.68" y="149.29" class="st10">Thread <tspan x="27.51" dy="1.2em" class="st11">Border </tspan><tspan x="27.51"
						dy="1.2em" class="st11">Router</tspan></text>		</g>
		<g id="shape62-23" transform="translate(250.506,-97.7354)">
			<title>Signal</title>
			<desc>Thread</desc>
			<path d="M5.24 178.52 L5.6 178.52 L55.42 178.52" class="st12"/>
			<rect x="17.8353" y="173.723" width="25.3477" height="9.59985" class="st14"/>
			<text x="17.84" y="180.92" class="st15">Thread</text>		</g>
		<g id="shape1001-34" transform="translate(165.467,-97.7354)">
			<title>Dynamic connector.1001</title>
			<desc>Ethernet or Wi-Fi</desc>
			<path d="M-5.24 178.52 L-5.6 178.52 L-63.56 178.52" class="st16"/>
			<rect x="-51.6866" y="168.923" width="30.2418" height="19.1997" class="st14"/>
			<text x="-51.69" y="176.12" class="st15">Ethernet<tspan x="-50.56" dy="1.2em" class="st11">or Wi</tspan>-Fi</text>		</g>
		<g id="shape1002-42" transform="translate(101.903,-104.822)">
			<title>Dynamic connector.1002</title>
			<path d="M0 185.61 L-24.12 143.64" class="st17"/>
		</g>
		<g id="shape1003-47" transform="translate(101.903,-111.909)">
			<title>Dynamic connector.1003</title>
			<path d="M0 192.7 L-41.01 192.7" class="st17"/>
		</g>
		<g id="group1004-52" transform="translate(6.375,-21.2)">
			<title>Laptop.1004</title>
			<g id="shape1005-53" transform="translate(9.24341,-7.5928)">
				<title>Sheet.1005</title>
				<path d="M52.38 153.72 L52.38 185.61 L0 185.61 L0 153.72 C0 152.05 1.39 150.68 3.08 150.68 L49.3 150.68 C50.99 150.68
							 52.38 152.05 52.38 153.72 ZM47.76 181.05 L47.76 155.24 L4.62 155.24 L4.62 181.05 L47.76 181.05 Z"
						class="st18"/>
			</g>
			<g id="shape1006-55">
				<title>Sheet.1006</title>
				<path d="M40.05 181.05 L70.87 181.05 L70.87 182.57 C70.87 184.24 69.48 185.61 67.79 185.61 L3.08 185.61 C1.39 185.61
							 0 184.24 0 182.57 L0 181.05 L30.81 181.05 L30.81 181.81 C30.81 182.27 31.12 182.57 31.58 182.57 L39.28
							 182.57 C39.75 182.57 40.05 182.27 40.05 181.81 L40.05 181.05 Z" class="st18"/>
			</g>
		</g>
		<g id="shape1007-57" transform="translate(101.903,-104.822)">
			<title>Dynamic connector.1007</title>
			<path d="M0 185.61 L-30.49 225.31" class="st17"/>
		</g>
	</g>
</svg>
