<?xml version="1.0" encoding="UTF-8" standalone="no"?>
<!DOCTYPE svg PUBLIC "-//W3C//DTD SVG 1.1//EN" "http://www.w3.org/Graphics/SVG/1.1/DTD/svg11.dtd">
<!-- Generated by Microsoft Visio, SVG Export nrf_tbr_app_setup.svg Page-1 -->
<svg xmlns="http://www.w3.org/2000/svg" xmlns:xlink="http://www.w3.org/1999/xlink" xmlns:ev="http://www.w3.org/2001/xml-events"
		width="7.0807in" height="3.41968in" viewBox="0 0 509.81 246.217" xml:space="preserve" color-interpolation-filters="sRGB"
		class="st17">
	<style type="text/css">
	<![CDATA[
		.st1 {fill:#d9e1e2;stroke:#d8d8d8;stroke-width:1}
		.st2 {stroke:#333f48;stroke-linecap:butt;stroke-width:2}
		.st3 {fill:none;stroke:none;stroke-width:1}
		.st4 {fill:#768692;font-family:Calibri;font-size:1.00001em}
		.st5 {fill:#0033a0;stroke:none;stroke-width:1}
		.st6 {fill:#333f48;font-family:Calibri;font-size:1.00001em}
		.st7 {font-size:1em}
		.st8 {fill:#0077c8;stroke:none;stroke-width:1}
		.st9 {fill:#6ad1e3;stroke:none;stroke-width:1}
		.st10 {fill:#333f48;font-family:Calibri;font-size:0.833336em}
		.st11 {fill:#feffff;font-family:Calibri;font-size:0.666664em}
		.st12 {fill:#ffffff;font-family:Arial;font-size:1.00001em}
		.st13 {marker-end:url(#mrkr13-66);marker-start:url(#mrkr13-64);stroke:#00a9ce;stroke-linecap:butt;stroke-width:1}
		.st14 {fill:#00a9ce;fill-opacity:1;stroke:#00a9ce;stroke-opacity:1;stroke-width:0.28409090909091}
		.st15 {fill:#ffffff;stroke:none;stroke-linecap:butt}
		.st16 {fill:#008bab;font-family:Calibri;font-size:0.833336em}
		.st17 {fill:none;fill-rule:evenodd;font-size:12px;overflow:visible;stroke-linecap:square;stroke-miterlimit:3}
	]]>
	</style>

	<defs id="Markers">
		<g id="lend13">
			<path d="M 3 1 L 0 0 L 3 -1 L 3 1 " style="stroke:none"/>
		</g>
		<marker id="mrkr13-64" class="st14" refX="10.2" orient="auto" markerUnits="strokeWidth" overflow="visible">
			<use xlink:href="#lend13" transform="scale(3.52) "/>
		</marker>
		<marker id="mrkr13-66" class="st14" refX="-10.56" orient="auto" markerUnits="strokeWidth" overflow="visible">
			<use xlink:href="#lend13" transform="scale(-3.52,-3.52) "/>
		</marker>
	</defs>
	<g>
		<title>Page-1</title>
		<g id="shape1415-1" transform="translate(1,-1)">
			<title>Circle</title>
			<path d="M0 124.11 A122.109 122.109 0 0 1 244.22 124.11 A122.109 122.109 0 1 1 0 124.11 Z" class="st1"/>
		</g>
		<g id="shape1416-3" transform="translate(82.4953,-171.369)">
			<title>Dynamic connector.61</title>
			<path d="M0 246.22 L-50.58 293.29" class="st2"/>
		</g>
		<g id="shape1419-6" transform="translate(191.508,-184.863)">
			<title>Dynamic connector.56</title>
			<path d="M0 246.9 L-109.01 259.71" class="st2"/>
		</g>
		<g id="shape1420-9" transform="translate(152.02,-107.231)">
			<title>Dynamic connector.57</title>
			<path d="M0 246.22 L39.49 169.27" class="st2"/>
		</g>
		<g id="shape1422-12" transform="translate(152.02,-107.231)">
			<title>Dynamic connector.62</title>
			<path d="M0 246.22 L-43.08 297.7" class="st2"/>
		</g>
		<g id="shape1438-15" transform="translate(69.7728,-209.235)">
			<title>Sheet.1438</title>
			<desc>Thread network</desc>
			<rect x="0" y="230.946" width="87.6629" height="15.2714" class="st3"/>
			<text x="4.88" y="242.18" class="st4">Thread network</text>		</g>
		<g id="group1439-18" transform="translate(83.6135,-24.9758)">
			<title>Sheet.1439</title>
			<g id="shape1423-19" transform="translate(12.4653,-17.9194)">
				<title>Circle.29</title>
				<path d="M0 233.36 A12.8566 12.8566 0 0 1 25.71 233.36 A12.8566 12.8566 0 1 1 0 233.36 Z" class="st5"/>
			</g>
			<g id="shape1425-21" transform="translate(31.5565,-9.95103)">
				<title>Sheet.1425</title>
				<desc>Thread node (End Device)</desc>
				<rect x="0" y="233.491" width="81.8293" height="12.7262" class="st3"/>
				<text x="9.92" y="236.25" class="st6">Thread node <tspan x="10.4" dy="1.2em" class="st7">(End Device)</tspan></text>			</g>
		</g>
		<g id="group1440-25" transform="translate(6.54127,-93.523)">
			<title>Sheet.1440</title>
			<g id="shape1432-26" transform="translate(12.5198,-17.9194)">
				<title>Circle.49</title>
				<path d="M0 233.36 A12.8566 12.8566 0 0 1 25.71 233.36 A12.8566 12.8566 0 1 1 0 233.36 Z" class="st5"/>
			</g>
			<g id="shape1434-28" transform="translate(34.5525,-5.19318)">
				<title>Sheet.1434</title>
				<desc>Thread node (End Device)</desc>
				<rect x="0" y="233.491" width="77.0722" height="12.7262" class="st3"/>
				<text x="7.55" y="236.25" class="st6">Thread node <tspan x="8.02" dy="1.2em" class="st7">(End Device)</tspan></text>			</g>
		</g>
		<g id="group1441-32" transform="translate(65.117,-131.831)">
			<title>Sheet.1441</title>
			<g id="shape1430-33" transform="translate(7.99361E-15,-23.9979)">
				<title>Pentagon.46</title>
				<path d="M17.37 211.47 L-0.89 224.75 L6.08 246.22 L28.66 246.22 L35.64 224.75 L17.37 211.47 Z" class="st8"/>
			</g>
			<g id="shape1435-35" transform="translate(28.4866,-8.06392)">
				<title>Sheet.1435</title>
				<desc>Thread node (Router)</desc>
				<rect x="0" y="230.946" width="81.8293" height="15.2714" class="st3"/>
				<text x="9.92" y="234.98" class="st6">Thread node <tspan x="20.61" dy="1.2em" class="st7">(Router)</tspan></text>			</g>
		</g>
		<g id="group1442-39" transform="translate(152.006,-93.523)">
			<title>Sheet.1442</title>
			<g id="shape1429-40" transform="translate(-17.3641,1.83163)">
				<title>Pentagon.45</title>
				<path d="M17.37 211.47 L-0.89 224.75 L6.08 246.22 L28.66 246.22 L35.64 224.75 L17.37 211.47 Z" class="st8"/>
			</g>
			<g id="shape1433-42" transform="translate(14.1732,-3.06007)">
				<title>Sheet.1433</title>
				<desc>Thread node (Router)</desc>
				<rect x="0" y="214.401" width="81.8293" height="31.8165" class="st3"/>
				<text x="9.92" y="226.71" class="st6">Thread node <tspan x="20.61" dy="1.2em" class="st7">(Router)</tspan></text>			</g>
		</g>
		<g id="shape1476-46" transform="translate(395.141,-28.9073)">
			<title>Pentagon.1476</title>
			<desc>Linux host machine</desc>
			<path d="M35.72 182.1 L-1.84 206.59 L12.51 246.22 L58.93 246.22 L73.27 206.59 L35.72 182.1 Z" class="st9"/>
			<text x="25.05" y="211.16" class="st10">Linux <tspan x="8.3" dy="1.2em" class="st7">host machine</tspan></text>		</g>
		<g id="shape1479-50" transform="translate(191.508,-146.005)">
			<title>Diamond</title>
			<desc>nRF Thread Border Router</desc>
			<path d="M0 208.04 L38.18 169.86 L76.36 208.04 L38.18 246.22 L0 208.04 Z" class="st8"/>
			<text x="19.71" y="205.64" class="st11">nRF Thread <tspan x="15" dy="1.2em" class="st7">Border Router</tspan></text>		</g>
		<g id="shape1480-54" transform="translate(352.905,-161.424)">
			<title>Nordic Blueslate.1480</title>
			<desc>Network device (Wi-Fi AP, Router, Switch)</desc>
			<rect x="0" y="200.699" width="155.906" height="45.5183" class="st5"/>
			<text x="36.94" y="219.86" class="st12">Network device <tspan x="7.94" dy="1.2em" class="st7">(Wi</tspan>-Fi AP, Router, Switch)</text>		</g>
		<g id="shape1481-58" transform="translate(267.865,-177.097)">
			<title>Dynamic connector.1481</title>
			<desc>Wi-Fi or Ethernet</desc>
			<path d="M10.2 239.13 L10.56 239.13 L74.48 239.13" class="st13"/>
			<rect x="24.7558" y="221.131" width="35.5279" height="36" class="st15"/>
			<text x="31.95" y="230.13" class="st16">Wi-Fi <tspan x="38.14" dy="1.2em" class="st7">or </tspan><tspan x="24.76"
						dy="1.2em" class="st7">Ethernet</tspan></text>		</g>
		<g id="shape1482-71" transform="translate(423.771,-93.0233)">
			<title>Dynamic connector.1482</title>
			<desc>Wi-Fi or Ethernet</desc>
			<path d="M7.09 236.02 L7.09 235.66 L7.09 188.38" class="st13"/>
			<rect x="-10.6772" y="194.017" width="35.5279" height="36" class="st15"/>
			<text x="-3.48" y="203.02" class="st16">Wi-Fi <tspan x="2.71" dy="1.2em" class="st7">or </tspan><tspan x="-10.68"
						dy="1.2em" class="st7">Ethernet</tspan></text>		</g>
	</g>
</svg>
