<?xml version="1.0" encoding="UTF-8" standalone="no"?>
<!DOCTYPE svg PUBLIC "-//W3C//DTD SVG 1.1//EN" "http://www.w3.org/Graphics/SVG/1.1/DTD/svg11.dtd">
<!-- Generated by Microsoft Visio, SVG Export nrf_tbr_app_arch.svg Page-1 -->
<svg xmlns="http://www.w3.org/2000/svg" xmlns:xlink="http://www.w3.org/1999/xlink" xmlns:ev="http://www.w3.org/2001/xml-events"
		width="7.73595in" height="6.90327in" viewBox="0 0 556.988 497.035" xml:space="preserve" color-interpolation-filters="sRGB"
		class="st24">
	<style type="text/css">
	<![CDATA[
		.st1 {fill:#0033a0;stroke:none;stroke-width:1}
		.st2 {fill:#ffffff;font-family:Arial;font-size:0.75em}
		.st3 {fill:#0077c8;stroke:none;stroke-width:1}
		.st4 {fill:#ffffff;font-family:Arial;font-size:0.916672em}
		.st5 {font-size:1em}
		.st6 {marker-end:url(#mrkr4-23);marker-start:url(#mrkr4-21);stroke:#00a9ce;stroke-linecap:butt;stroke-width:1}
		.st7 {fill:#00a9ce;fill-opacity:1;stroke:#00a9ce;stroke-opacity:1;stroke-width:0.28409090909091}
		.st8 {fill:#ffffff;stroke:none;stroke-linecap:butt;stroke-width:7.2}
		.st9 {fill:#00a9ce;font-family:Arial;font-size:0.75em}
		.st10 {fill:#ffffff;stroke:none;stroke-linecap:butt}
		.st11 {fill:#768692;stroke:none;stroke-width:1}
		.st12 {fill:none;stroke:#000000;stroke-width:1}
		.st13 {fill:#00a9ce;stroke:none;stroke-width:1}
		.st14 {fill:none;stroke:none;stroke-width:1}
		.st15 {fill:#000000;font-family:Arial;font-size:0.75em}
		.st16 {marker-end:url(#mrkr4-62);marker-start:url(#mrkr4-60);stroke:#768692;stroke-linecap:butt;stroke-width:1}
		.st17 {fill:#768692;fill-opacity:1;stroke:#768692;stroke-opacity:1;stroke-width:0.28409090909091}
		.st18 {fill:#768692;font-family:Arial;font-size:0.75em}
		.st19 {marker-end:url(#mrkr13-79);stroke:#00a9ce;stroke-linecap:butt;stroke-width:1}
		.st20 {marker-end:url(#mrkr13-88);stroke:#768692;stroke-linecap:butt;stroke-width:1}
		.st21 {fill:#6ad1e3;stroke:none;stroke-width:1}
		.st22 {fill:#ffffff;font-family:Arial;font-size:0.833336em}
		.st23 {fill:#768692;font-family:Arial;font-size:0.666664em}
		.st24 {fill:none;fill-rule:evenodd;font-size:12px;overflow:visible;stroke-linecap:square;stroke-miterlimit:3}
	]]>
	</style>

	<defs id="Markers">
		<g id="lend4">
			<path d="M 2 1 L 0 0 L 2 -1 L 2 1 " style="stroke:none"/>
		</g>
		<marker id="mrkr4-21" class="st7" refX="6.68" orient="auto" markerUnits="strokeWidth" overflow="visible">
			<use xlink:href="#lend4" transform="scale(3.52) "/>
		</marker>
		<marker id="mrkr4-23" class="st7" refX="-7.04" orient="auto" markerUnits="strokeWidth" overflow="visible">
			<use xlink:href="#lend4" transform="scale(-3.52,-3.52) "/>
		</marker>
		<marker id="mrkr4-60" class="st17" refX="6.68" orient="auto" markerUnits="strokeWidth" overflow="visible">
			<use xlink:href="#lend4" transform="scale(3.52) "/>
		</marker>
		<marker id="mrkr4-62" class="st17" refX="-7.04" orient="auto" markerUnits="strokeWidth" overflow="visible">
			<use xlink:href="#lend4" transform="scale(-3.52,-3.52) "/>
		</marker>
		<g id="lend13">
			<path d="M 3 1 L 0 0 L 3 -1 L 3 1 " style="stroke:none"/>
		</g>
		<marker id="mrkr13-79" class="st7" refX="-10.56" orient="auto" markerUnits="strokeWidth" overflow="visible">
			<use xlink:href="#lend13" transform="scale(-3.52,-3.52) "/>
		</marker>
		<marker id="mrkr13-88" class="st17" refX="-10.56" orient="auto" markerUnits="strokeWidth" overflow="visible">
			<use xlink:href="#lend13" transform="scale(-3.52,-3.52) "/>
		</marker>
	</defs>
	<g>
		<title>Page-1</title>
		<g id="shape25-1" transform="translate(138.764,-1)">
			<title>Nordic Blueslate.25</title>
			<desc>nRF54H20 Network Core</desc>
			<rect x="0" y="393.004" width="273.579" height="104.031" class="st1"/>
			<text x="86.27" y="405.1" class="st2">nRF54H20 Network Core</text>		</g>
		<g id="shape26-4" transform="translate(148.553,-50.3334)">
			<title>Nordic Lake.26</title>
			<desc>802.15.4 PHY</desc>
			<rect x="0" y="462.474" width="256.374" height="34.5615" class="st3"/>
			<text x="93.94" y="483.05" class="st4">802.15.4 PHY</text>		</g>
		<g id="shape27-7" transform="translate(148.553,-8.95818)">
			<title>Nordic Lake.27</title>
			<desc>MPSL</desc>
			<rect x="0" y="462.474" width="256.374" height="34.5615" class="st3"/>
			<text x="113.21" y="483.05" class="st4">MPSL</text>		</g>
		<g id="shape29-10" transform="translate(1,-326.04)">
			<title>Nordic Blueslate.29</title>
			<desc>External ETH PHY with Zephyr OS support</desc>
			<rect x="0" y="442.395" width="101.445" height="54.6402" class="st3"/>
			<text x="5.18" y="459.82" class="st4">External ETH PHY <tspan x="12.82" dy="1.2em" class="st5">with Zephyr OS </tspan><tspan
						x="32.38" dy="1.2em" class="st5">support</tspan></text>		</g>
		<g id="shape34-15" transform="translate(102.445,-360.446)">
			<title>Signal</title>
			<desc>SPI</desc>
			<path d="M6.68 504.12 L7.04 504.12 L29.28 504.12" class="st6"/>
			<rect x="10.9063" y="498.722" width="14.5063" height="10.7998" class="st8"/>
			<text x="10.91" y="506.82" class="st9">SPI</text>		</g>
		<g id="shape35-26" transform="translate(268.467,-105.031)">
			<title>Signal.35</title>
			<desc>icmsg (Spinel)</desc>
			<path d="M7.09 490.36 L7.09 490 L7.09 457.87" class="st6"/>
			<rect x="-8.41949" y="463.133" width="31.0122" height="21.5997" class="st10"/>
			<text x="-4.66" y="471.23" class="st9">icmsg <tspan x="-8.42" dy="1.2em" class="st5">(Spinel)</tspan></text>		</g>
		<g id="shape1000-36" transform="translate(458.547,-25.7298)">
			<title>Nordic Blueslate.1000</title>
			<desc>FEM</desc>
			<rect x="0" y="442.395" width="97.4409" height="54.6402" class="st11"/>
			<text x="37.11" y="473.02" class="st4">FEM</text>		</g>
		<g id="shape1001-39" transform="translate(458.547,-326.363)">
			<title>Nordic Blueslate.1001</title>
			<desc>nRF7002 IC</desc>
			<rect x="0" y="442.395" width="97.4409" height="54.6402" class="st3"/>
			<text x="19.07" y="473.02" class="st4">nRF7002 IC</text>		</g>
		<g id="shape1012-42" transform="translate(5.53543,-405.327)">
			<title>Nordic Blue.1012</title>
			<rect x="0" y="406.962" width="97.4409" height="90.0733" class="st12"/>
		</g>
		<g id="shape1013-44" transform="translate(19.7087,-431.264)">
			<title>Nordic Blue.1013</title>
			<rect x="0" y="483.713" width="13.3228" height="13.3228" class="st11"/>
		</g>
		<g id="shape1014-46" transform="translate(19.7087,-471.546)">
			<title>Nordic Blue.1014</title>
			<rect x="0" y="483.713" width="13.3228" height="13.3228" class="st13"/>
		</g>
		<g id="shape1015-48" transform="translate(44.5207,-471.546)">
			<title>Sheet.1015</title>
			<desc>available</desc>
			<rect x="0" y="483.713" width="47.5398" height="13.3228" class="st14"/>
			<text x="4" y="493.07" class="st15">available</text>		</g>
		<g id="shape1016-51" transform="translate(44.5207,-431.264)">
			<title>Sheet.1016</title>
			<desc>planned</desc>
			<rect x="0" y="483.713" width="47.5398" height="13.3228" class="st14"/>
			<text x="4" y="493.07" class="st15">planned</text>		</g>
		<g id="shape1017-54" transform="translate(412.343,-345.826)">
			<title>Signal.1017</title>
			<desc>QSPI</desc>
			<path d="M6.68 504.1 L7.04 504.1 L39.16 504.14" class="st16"/>
			<rect x="12.3489" y="498.722" width="21.5068" height="10.7998" class="st10"/>
			<text x="12.35" y="506.82" class="st18">QSPI</text>		</g>
		<g id="shape1018-65" transform="translate(412.343,-45.9462)">
			<title>Signal.1018</title>
			<desc>SPI</desc>
			<path d="M6.68 489.96 L7.04 489.96 L39.16 489.94" class="st16"/>
			<rect x="15.8492" y="484.549" width="14.5063" height="10.7998" class="st8"/>
			<text x="15.85" y="492.65" class="st18">SPI</text>		</g>
		<g id="shape1019-74" transform="translate(18.2913,-450.606)">
			<title>Signal.1019</title>
			<path d="M0 490.02 L6.45 489.97" class="st19"/>
		</g>
		<g id="shape1020-80" transform="translate(44.5207,-451.106)">
			<title>Sheet.1020</title>
			<desc>available</desc>
			<rect x="0" y="483.713" width="47.5398" height="13.3228" class="st14"/>
			<text x="4" y="493.07" class="st15">available</text>		</g>
		<g id="shape1021-83" transform="translate(18.2913,-410.921)">
			<title>Signal.1021</title>
			<path d="M0 490.02 L6.45 489.97" class="st20"/>
		</g>
		<g id="shape1022-89" transform="translate(44.1575,-411.719)">
			<title>Sheet.1022</title>
			<desc>planned</desc>
			<rect x="0" y="483.713" width="47.5398" height="13.3228" class="st14"/>
			<text x="4" y="493.07" class="st15">planned</text>		</g>
		<g id="shape1023-92" transform="translate(412.343,-377.007)">
			<title>Signal.1023</title>
			<desc>SPI</desc>
			<path d="M6.68 504.1 L7.04 504.1 L39.16 504.14" class="st6"/>
			<rect x="15.8492" y="498.722" width="14.5063" height="10.7998" class="st10"/>
			<text x="15.85" y="506.82" class="st9">SPI</text>		</g>
		<g id="shape1024-101" transform="translate(138.764,-151.236)">
			<title>Nordic Blueslate.1024</title>
			<desc>nRF54H20 App Core</desc>
			<rect x="0" y="152.236" width="273.579" height="344.799" class="st1"/>
			<text x="94.77" y="164.34" class="st2">nRF54H20 App Core</text>		</g>
		<g id="shape1025-104" transform="translate(146.949,-243.079)">
			<title>Nordic Sky.1025</title>
			<desc>Application</desc>
			<rect x="0" y="265.339" width="257.457" height="231.697" class="st21"/>
			<text x="104.27" y="278.34" class="st22">Application</text>		</g>
		<g id="shape1026-107" transform="translate(146.949,-201.127)">
			<title>Nordic Lake.1026</title>
			<desc>Zephyr integration</desc>
			<rect x="0" y="462.474" width="257.457" height="34.5615" class="st3"/>
			<text x="84.4" y="483.05" class="st4">Zephyr integration</text>		</g>
		<g id="shape1027-110" transform="translate(146.949,-159.761)">
			<title>Nordic Lake.1027</title>
			<desc>Ethernet</desc>
			<rect x="0" y="462.493" width="82.4145" height="34.5425" class="st3"/>
			<text x="20.42" y="483.06" class="st4">Ethernet</text>		</g>
		<g id="shape1028-113" transform="translate(236.172,-159.761)">
			<title>Nordic Lake.1028</title>
			<desc>OpenThread</desc>
			<rect x="0" y="462.493" width="82.4145" height="34.5425" class="st3"/>
			<text x="10.33" y="483.06" class="st4">OpenThread</text>		</g>
		<g id="shape1029-116" transform="translate(325.691,-159.761)">
			<title>Nordic Lake.1029</title>
			<desc>Wi-Fi</desc>
			<rect x="0" y="462.493" width="78.7146" height="34.5425" class="st3"/>
			<text x="26.53" y="483.06" class="st4">Wi-Fi</text>		</g>
		<g id="shape1030-119" transform="translate(154.797,-421.571)">
			<title>Nordic Lake.1030</title>
			<desc>Border Agent</desc>
			<rect x="0" y="462.493" width="118.04" height="34.5425" class="st3"/>
			<text x="26.61" y="483.06" class="st4">Border Agent</text>		</g>
		<g id="shape1031-122" transform="translate(280.337,-421.571)">
			<title>Nordic Lake.1031</title>
			<desc>mDNS Publisher</desc>
			<rect x="0" y="462.493" width="114.921" height="34.5425" class="st3"/>
			<text x="16.81" y="483.06" class="st4">mDNS Publisher</text>		</g>
		<g id="shape1039-125" transform="translate(154.797,-379.142)">
			<title>Nordic Lake.1039</title>
			<desc>NAT</desc>
			<rect x="0" y="462.493" width="118.04" height="34.5425" class="st3"/>
			<text x="48.02" y="483.06" class="st4">NAT</text>		</g>
		<g id="shape1040-128" transform="translate(280.337,-379.142)">
			<title>Nordic Lake.1040</title>
			<desc>ND Proxy</desc>
			<rect x="0" y="462.493" width="114.921" height="34.5425" class="st3"/>
			<text x="33.93" y="483.06" class="st4">ND Proxy</text>		</g>
		<g id="shape1041-131" transform="translate(154.797,-336.712)">
			<title>Nordic Lake.1041</title>
			<desc>Backbone Agent</desc>
			<rect x="0" y="462.493" width="118.04" height="34.5425" class="st3"/>
			<text x="18.66" y="483.06" class="st4">Backbone Agent</text>		</g>
		<g id="shape1042-134" transform="translate(280.337,-336.712)">
			<title>Nordic Lake.1042</title>
			<desc>Advertising Proxy</desc>
			<rect x="0" y="462.493" width="114.921" height="34.5425" class="st11"/>
			<text x="14.67" y="483.06" class="st4">Advertising Proxy</text>		</g>
		<g id="shape1043-137" transform="translate(155.161,-293.576)">
			<title>Nordic Lake.1043</title>
			<desc>Discovery Proxy</desc>
			<rect x="0" y="462.493" width="118.04" height="34.5425" class="st11"/>
			<text x="19.29" y="483.06" class="st4">Discovery Proxy</text>		</g>
		<g id="shape1044-140" transform="translate(155.161,-251.146)">
			<title>Nordic Lake.1044</title>
			<desc>SRP Server</desc>
			<rect x="0" y="462.493" width="118.04" height="34.5425" class="st11"/>
			<text x="29.98" y="483.06" class="st4">SRP Server</text>		</g>
		<g id="shape1045-143" transform="translate(281.088,-294.103)">
			<title>Nordic Lake.1045</title>
			<desc>DUA Routing Manager</desc>
			<rect x="0" y="462.493" width="114.921" height="34.5425" class="st11"/>
			<text x="25.36" y="476.46" class="st4">DUA Routing <tspan x="35.75" dy="1.2em" class="st5">Manager</tspan></text>		</g>
		<g id="shape1046-147" transform="translate(281.088,-251.674)">
			<title>Nordic Lake.1046</title>
			<desc>DFU</desc>
			<rect x="0" y="462.493" width="114.921" height="34.5425" class="st11"/>
			<text x="46.16" y="483.06" class="st4">DFU</text>		</g>
		<g id="shape1047-150" transform="translate(423.646,-348.314)">
			<title>Sheet.1047</title>
			<desc>OR</desc>
			<rect x="0" y="485.697" width="22.6772" height="11.3386" class="st14"/>
			<text x="5.34" y="493.77" class="st23">OR</text>		</g>
	</g>
</svg>
