<?xml version="1.0" encoding="UTF-8" standalone="no"?>
<!DOCTYPE svg PUBLIC "-//W3C//DTD SVG 1.1//EN" "http://www.w3.org/Graphics/SVG/1.1/DTD/svg11.dtd">
<!-- Generated by Microsoft Visio, SVG Export tbr_overview.svg Page-1 -->
<svg xmlns="http://www.w3.org/2000/svg" xmlns:xlink="http://www.w3.org/1999/xlink" xmlns:ev="http://www.w3.org/2001/xml-events"
		width="5.79145in" height="1.83005in" viewBox="0 0 416.984 131.764" xml:space="preserve" color-interpolation-filters="sRGB"
		class="st18">
	<style type="text/css">
	<![CDATA[
		.st1 {fill:#6ad1e3;stroke:#feffff;stroke-width:1}
		.st2 {fill:#feffff;font-family:Arial;font-size:0.833336em}
		.st3 {fill:#6ad1e3;stroke:#6ad1e3;stroke-linecap:round;stroke-linejoin:round;stroke-width:0.25}
		.st4 {fill:#00a9ce;stroke:#feffff;stroke-width:1}
		.st5 {fill:#0077c8;stroke:#ffffff;stroke-width:1}
		.st6 {fill:#ffffff}
		.st7 {stroke:#ffffff;stroke-width:1}
		.st8 {fill:#0077c8;stroke:none;stroke-width:6.375}
		.st9 {fill:#00a9ce;stroke:none;stroke-width:1}
		.st10 {fill:#ffffff;font-family:Arial;font-size:0.833336em}
		.st11 {font-size:1em}
		.st12 {marker-end:url(#mrkr4-31);marker-start:url(#mrkr4-29);stroke:#0077c8;stroke-linecap:butt;stroke-width:1}
		.st13 {fill:#0077c8;fill-opacity:1;stroke:#0077c8;stroke-opacity:1;stroke-width:0.35714285714286}
		.st14 {fill:#ffffff;stroke:none;stroke-linecap:butt;stroke-width:7.2}
		.st15 {fill:#0077c8;font-family:Arial;font-size:0.666664em}
		.st16 {marker-start:url(#mrkr4-29);stroke:#0077c8;stroke-linecap:butt;stroke-width:1}
		.st17 {marker-end:url(#mrkr4-31);stroke:#0077c8;stroke-linecap:butt;stroke-width:1}
		.st18 {fill:none;fill-rule:evenodd;font-size:12px;overflow:visible;stroke-linecap:square;stroke-miterlimit:3}
	]]>
	</style>

	<defs id="Markers">
		<g id="lend4">
			<path d="M 2 1 L 0 0 L 2 -1 L 2 1 " style="stroke:none"/>
		</g>
		<marker id="mrkr4-29" class="st13" refX="5.24" orient="auto" markerUnits="strokeWidth" overflow="visible">
			<use xlink:href="#lend4" transform="scale(2.8) "/>
		</marker>
		<marker id="mrkr4-31" class="st13" refX="-5.6" orient="auto" markerUnits="strokeWidth" overflow="visible">
			<use xlink:href="#lend4" transform="scale(-2.8,-2.8) "/>
		</marker>
	</defs>
	<g>
		<title>Page-1</title>
		<g id="shape1000-1" transform="translate(304.016,-17.6691)">
			<title>Circle.1000</title>
			<desc>Thread network</desc>
			<path d="M0 75.78 A55.9843 55.9843 0 0 1 111.97 75.78 A55.9843 55.9843 0 1 1 0 75.78 Z" class="st1"/>
			<text x="21.25" y="46.79" class="st2">Thread network</text>		</g>
		<g id="group5-4" transform="translate(4.39648E-14,-92.0786)">
			<title>Cloud</title>
			<g id="shape6-5">
				<title>Sheet.6</title>
				<path d="M58.53 112.4 C58.29 112.4 57.97 112.4 57.73 112.4 C57.73 112.4 57.73 112.4 57.73 112.4 C57.73 108.47 55.81
							 104.85 52.7 102.6 C49.51 100.35 45.43 99.79 41.76 101.08 C38.73 95.13 32.02 92.08 25.63 93.6 C19.24
							 95.13 14.61 100.92 14.61 107.58 C14.61 107.58 14.61 107.66 14.61 107.74 C10.22 107.02 5.83 108.87 3.11
							 112.4 C0.48 116.02 0 120.76 1.84 124.77 C3.75 128.79 7.75 131.44 12.14 131.68 L12.14 131.76 L58.45 131.76
							 C63.72 131.76 68.03 127.43 68.03 122.12 C68.03 116.82 63.8 112.4 58.53 112.4 Z" class="st3"/>
			</g>
		</g>
		<g id="group7-7" transform="translate(2.83465,-20)">
			<title>Smart phone</title>
			<g id="shape8-8" transform="translate(14.8378,0)">
				<title>Sheet.8</title>
				<path d="M0 127.85 C0 129.23 1.12 130.5 2.49 130.69 C2.49 130.69 10.6 131.76 16.63 131.76 C22.65 131.76 30.77 130.69
							 30.77 130.69 C32.13 130.5 33.25 129.23 33.25 127.85 L33.25 72.75 C33.25 71.37 32.13 70.09 30.77 69.91
							 C30.77 69.91 22.8 68.83 16.63 68.83 C10.6 68.83 2.49 69.91 2.49 69.91 C1.12 70.09 0 71.37 0 72.75 L0
							 127.85 Z" class="st4"/>
			</g>
			<g id="shape9-10" transform="translate(17.3471,-7.72717)">
				<title>Sheet.9</title>
				<rect x="0" y="85.5074" width="28.2349" height="46.2562" class="st5"/>
			</g>
			<g id="shape10-12" transform="translate(26.2785,-3.13859)">
				<title>Sheet.10</title>
				<path d="M2.24 130.64 A1.11896 1.11896 -180 1 0 0 130.64 A1.11896 1.11896 -180 1 0 2.24 130.64 ZM6.31 130.64 A1.11896
							 1.11896 -180 1 0 4.07 130.64 A1.11896 1.11896 -180 1 0 6.31 130.64 ZM10.38 130.64 A1.11961 1.11961 -180
							 1 0 8.14 130.64 A1.11961 1.11961 -180 1 0 10.38 130.64 Z" class="st6"/>
				<path d="M1.03 77.11 L9.34 77.11" class="st7"/>
			</g>
		</g>
		<g id="group56-15" transform="translate(327.827,-35.2099)">
			<title>Network</title>
			<g id="shape57-16">
				<title>Sheet.57</title>
				<path d="M62.42 92.48 C63.84 95.99 62.17 99.92 58.82 101.46 C55.98 102.66 52.72 101.63 50.96 99.24 L39.92 103.86
							 C40 104.2 40 104.63 40 104.97 C40 106.94 39.42 108.65 38.33 110.1 L47.03 119.08 C49.62 117.54 52.97
							 117.88 55.14 120.11 C57.74 122.76 57.74 127.12 55.14 129.77 C52.55 132.43 48.28 132.43 45.69 129.77
							 C43.52 127.47 43.18 124.04 44.69 121.39 L35.82 112.32 C34.57 113.09 33.14 113.52 31.64 113.52 L31.3
							 113.52 C29.8 113.52 28.38 113.09 27.12 112.32 L18.25 121.39 C19.76 124.04 19.42 127.47 17.25 129.69
							 C14.66 132.34 10.39 132.34 7.8 129.69 C5.2 127.04 5.2 122.68 7.8 120.02 C9.97 117.8 13.32 117.46 15.91
							 119 L24.61 110.02 C23.52 108.56 22.94 106.76 22.94 104.88 C22.94 104.54 22.94 104.11 23.02 103.77 L11.98
							 99.15 C10.22 101.63 6.96 102.57 4.12 101.38 C0.69 99.92 -0.9 95.9 0.52 92.39 C1.94 88.89 5.87 87.26
							 9.3 88.72 C12.23 89.91 13.82 92.99 13.4 95.99 L24.19 100.61 C25.36 98.55 27.37 97.01 29.8 96.59 L29.8
							 84.78 C26.95 84.01 24.78 81.36 24.78 78.19 C24.78 74.43 27.79 71.35 31.47 71.35 C35.15 71.35 38.16 74.43
							 38.16 78.19 C38.16 81.36 35.99 84.01 33.14 84.78 L33.14 96.67 C35.49 97.1 37.58 98.64 38.75 100.69 L49.54
							 96.07 C49.12 93.08 50.79 90 53.64 88.8 C57.07 87.35 61 88.97 62.42 92.48 Z" class="st8"/>
			</g>
		</g>
		<g id="shape61-18" transform="translate(157.958,-46.3333)">
			<title>Nordic Blue</title>
			<desc>Thread Border Router</desc>
			<rect x="0" y="77.1234" width="85.0394" height="54.6402" class="st9"/>
			<text x="26.68" y="95.44" class="st10">Thread <tspan x="27.51" dy="1.2em" class="st11">Border </tspan><tspan x="27.51"
						dy="1.2em" class="st11">Router</tspan></text>		</g>
		<g id="shape62-23" transform="translate(242.998,-66.5668)">
			<title>Signal</title>
			<desc>Thread</desc>
			<path d="M5.24 124.68 L5.6 124.68 L55.42 124.68" class="st12"/>
			<rect x="17.8353" y="119.877" width="25.3477" height="9.59985" class="st14"/>
			<text x="17.84" y="127.08" class="st15">Thread</text>		</g>
		<g id="shape1001-34" transform="translate(157.958,-66.5668)">
			<title>Dynamic connector.1001</title>
			<desc>Ethernet or Wi-Fi</desc>
			<path d="M-5.24 124.68 L-5.6 124.68 L-63.56 124.68" class="st16"/>
			<rect x="-51.6866" y="115.077" width="30.2418" height="19.1997" class="st14"/>
			<text x="-51.69" y="122.28" class="st15">Ethernet<tspan x="-50.56" dy="1.2em" class="st11">or Wi</tspan>-Fi</text>		</g>
		<g id="shape1002-42" transform="translate(94.3937,-73.6534)">
			<title>Dynamic connector.1002</title>
			<path d="M0 131.76 L-23.01 111.33" class="st17"/>
		</g>
		<g id="shape1003-47" transform="translate(94.3937,-73.6534)">
			<title>Dynamic connector.1003</title>
			<path d="M0 131.76 L-38.21 145.87" class="st17"/>
		</g>
	</g>
</svg>
