<?xml version="1.0" encoding="UTF-8" standalone="no"?>
<!DOCTYPE svg PUBLIC "-//W3C//DTD SVG 1.1//EN" "http://www.w3.org/Graphics/SVG/1.1/DTD/svg11.dtd">
<!-- Generated by Microsoft Visio, SVG Export thread_platform_design_nrf54l15.svg Page-1 -->
<svg xmlns="http://www.w3.org/2000/svg" xmlns:xlink="http://www.w3.org/1999/xlink" xmlns:ev="http://www.w3.org/2001/xml-events"
		width="7.87527in" height="6.94348in" viewBox="0 0 567.02 499.931" xml:space="preserve" color-interpolation-filters="sRGB"
		class="st18">
	<style type="text/css">
	<![CDATA[
		.st1 {fill:#6ad1e3;stroke:none;stroke-width:1}
		.st2 {fill:#333f48;font-family:Arial;font-size:1.33333em}
		.st3 {fill:#0033a0;stroke:none;stroke-width:1}
		.st4 {fill:#ffffff;font-family:Arial;font-size:1.16666em}
		.st5 {fill:#00a9ce;stroke:none;stroke-width:1}
		.st6 {fill:#ffffff;font-family:Arial;font-size:1.33333em}
		.st7 {fill:#0077c8;stroke:none;stroke-width:1}
		.st8 {fill:#ffffff;font-family:Calibri;font-size:0.916672em}
		.st9 {font-size:1em}
		.st10 {marker-end:url(#mrkr4-32);marker-start:url(#mrkr4-30);stroke:#00a9ce;stroke-linecap:butt;stroke-width:1}
		.st11 {fill:#00a9ce;fill-opacity:1;stroke:#00a9ce;stroke-opacity:1;stroke-width:0.28409090909091}
		.st12 {fill:none;stroke:none;stroke-width:1}
		.st13 {fill:#333f48;font-family:Arial;font-size:0.916672em}
		.st14 {fill:#768692;stroke:none;stroke-width:1}
		.st15 {fill:#ffffff;font-family:Arial;font-size:1.00001em}
		.st16 {fill:#ffffff;font-family:Arial;font-size:0.916672em}
		.st17 {fill:#ffffff;font-family:Calibri;font-size:1.00001em}
		.st18 {fill:none;fill-rule:evenodd;font-size:12px;overflow:visible;stroke-linecap:square;stroke-miterlimit:3}
	]]>
	</style>

	<defs id="Markers">
		<g id="lend4">
			<path d="M 2 1 L 0 0 L 2 -1 L 2 1 " style="stroke:none"/>
		</g>
		<marker id="mrkr4-30" class="st11" refX="6.68" orient="auto" markerUnits="strokeWidth" overflow="visible">
			<use xlink:href="#lend4" transform="scale(3.52) "/>
		</marker>
		<marker id="mrkr4-32" class="st11" refX="-7.04" orient="auto" markerUnits="strokeWidth" overflow="visible">
			<use xlink:href="#lend4" transform="scale(-3.52,-3.52) "/>
		</marker>
	</defs>
	<g>
		<title>Page-1</title>
		<g id="shape44-1" transform="translate(1,-1)">
			<title>Nordic Sky</title>
			<desc>nRF54L15 Application Core</desc>
			<rect x="0" y="1.99999" width="565.019" height="497.931" class="st1"/>
			<text x="184.23" y="491.13" class="st2">nRF54L15 Application Core</text>		</g>
		<g id="shape22-4" transform="translate(12.4434,-429.227)">
			<title>Nordic Blueslate</title>
			<desc>Application</desc>
			<rect x="0" y="441.202" width="539.272" height="58.7284" class="st3"/>
			<text x="235.39" y="474.77" class="st4">Application</text>		</g>
		<g id="shape20-7" transform="translate(12.4434,-36.9021)">
			<title>Nordic Blue</title>
			<desc>Secure storage</desc>
			<rect x="0" y="380.882" width="539.272" height="119.048" class="st5"/>
			<text x="215.38" y="491.13" class="st6">Secure storage</text>		</g>
		<g id="shape8-10" transform="translate(25.392,-68.9915)">
			<title>Sheet.8</title>
			<desc>Key management</desc>
			<path d="M0 423.76 L0 499.93 L124.92 499.93 L124.92 423.76 L0 423.76 L0 423.76 Z" class="st7"/>
			<text x="23.39" y="465.15" class="st8">Key management</text>		</g>
		<g id="shape17-13" transform="translate(154.878,-68.9915)">
			<title>Sheet.17</title>
			<desc>Cryptography</desc>
			<path d="M0 423.76 L0 499.93 L124.92 499.93 L124.92 423.76 L0 423.76 L0 423.76 Z" class="st7"/>
			<text x="32.08" y="465.15" class="st8">Cryptography</text>		</g>
		<g id="shape18-16" transform="translate(284.364,-69.3088)">
			<title>Sheet.18</title>
			<desc>Cryptographically Secure Pseudorandom Number Generator</desc>
			<path d="M0 423.76 L0 499.93 L124.92 499.93 L124.92 423.76 L0 423.76 L0 423.76 Z" class="st7"/>
			<text x="6.95" y="451.95" class="st8">Cryptographically Secure <tspan x="8.8" dy="1.2em" class="st9">Pseudorandom Number </tspan><tspan
						x="39.41" dy="1.2em" class="st9">Generator</tspan></text>		</g>
		<g id="shape19-21" transform="translate(413.851,-69.3088)">
			<title>Sheet.19</title>
			<desc>Trusted Firmware-M</desc>
			<path d="M0 423.76 L0 499.93 L124.92 499.93 L124.92 423.76 L0 423.76 L0 423.76 Z" class="st7"/>
			<text x="16.4" y="465.15" class="st8">Trusted Firmware-M</text>		</g>
		<g id="shape35-24" transform="translate(409.28,-345.295)">
			<title>Dynamic connector</title>
			<path d="M6.68 499.93 L7.04 499.93 L57.89 499.93 L57.89 682.24" class="st10"/>
		</g>
		<g id="shape39-33" transform="translate(403.492,-240.711)">
			<title>Sheet.39</title>
			<desc>PSA Crypto API</desc>
			<rect x="0" y="478.009" width="109.682" height="21.9217" class="st12"/>
			<text x="-528.1" y="58.14" transform="rotate(-90)" class="st13">PSA Crypto API</text>		</g>
		<g id="shape40-36" transform="translate(513.863,-429.227)">
			<title>Dynamic connector.40</title>
			<path d="M-7.09 506.61 L-7.09 506.97 L-7.09 764.56" class="st10"/>
		</g>
		<g id="shape41-43" transform="translate(442.033,-240.711)">
			<title>Sheet.41</title>
			<desc>PSA Crypto API</desc>
			<rect x="0" y="478.009" width="109.682" height="21.9217" class="st12"/>
			<text x="-528.1" y="58.14" transform="rotate(-90)" class="st13">PSA Crypto API</text>		</g>
		<g id="shape23-46" transform="translate(12.4434,-385.264)">
			<title>Nordic Middle Grey</title>
			<desc>Zephyr integration</desc>
			<rect x="0" y="462.783" width="396.837" height="37.1482" class="st14"/>
			<text x="142" y="485.56" class="st4">Zephyr integration</text>		</g>
		<g id="shape26-49" transform="translate(12.4434,-164.542)">
			<title>Nordic Blue.26</title>
			<desc>Multiprotocol Service Layer (MPSL)</desc>
			<rect x="0" y="462.783" width="398.056" height="37.1482" class="st5"/>
			<text x="88.94" y="485.56" class="st4">Multiprotocol Service Layer (MPSL)</text>		</g>
		<g id="shape27-52" transform="translate(12.4434,-312.142)">
			<title>Nordic Blue.27</title>
			<desc>Thread stack (OpenThread)</desc>
			<rect x="0" y="433.625" width="396.837" height="66.3059" class="st5"/>
			<text x="124.38" y="470.38" class="st15">Thread stack (OpenThread)</text>		</g>
		<g id="shape28-55" transform="translate(13.6621,-283.404)">
			<title>Nordic Middle Grey.28</title>
			<desc>Zephyr integration</desc>
			<rect x="0" y="478.009" width="396.837" height="21.9217" class="st14"/>
			<text x="150.06" y="492.57" class="st15">Zephyr integration</text>		</g>
		<g id="shape29-58" transform="translate(13.6621,-210.283)">
			<title>Nordic Blue.29</title>
			<desc>nRF IEEE 802.15.4 radio driver</desc>
			<rect x="0" y="433.625" width="396.837" height="66.3059" class="st5"/>
			<text x="151.03" y="447.53" class="st16">nRF IEEE 802.15.4<tspan x="170.91" dy="1.2em" class="st9">radio driver</tspan></text>		</g>
		<g id="shape31-62" transform="translate(43.5698,-217.189)">
			<title>Sheet.31</title>
			<desc>IEEE 802.15.4 PHY</desc>
			<path d="M0 478.01 L0 499.93 L335.8 499.93 L335.8 478.01 L0 478.01 L0 478.01 Z" class="st7"/>
			<text x="123.85" y="492.57" class="st17">IEEE 802.15.4 PHY</text>		</g>
	</g>
</svg>
