<?xml version="1.0" encoding="UTF-8" standalone="no"?>
<!DOCTYPE svg PUBLIC "-//W3C//DTD SVG 1.1//EN" "http://www.w3.org/Graphics/SVG/1.1/DTD/svg11.dtd">
<!-- Generated by Microsoft Visio, SVG Export thread_platform_design_nrf54l15_multi.svg Page-1 -->
<svg xmlns="http://www.w3.org/2000/svg" xmlns:xlink="http://www.w3.org/1999/xlink" xmlns:ev="http://www.w3.org/2001/xml-events"
		width="7.87527in" height="7.47793in" viewBox="0 0 567.02 538.411" xml:space="preserve" color-interpolation-filters="sRGB"
		class="st19">
	<style type="text/css">
	<![CDATA[
		.st1 {fill:#6ad1e3;stroke:none;stroke-width:1}
		.st2 {fill:#333f48;font-family:Arial;font-size:1.33333em}
		.st3 {fill:#0033a0;stroke:none;stroke-width:1}
		.st4 {fill:#ffffff;font-family:Arial;font-size:1.16666em}
		.st5 {fill:#00a9ce;stroke:none;stroke-width:1}
		.st6 {fill:#ffffff;font-family:Arial;font-size:1.33333em}
		.st7 {fill:#0077c8;stroke:none;stroke-width:1}
		.st8 {fill:#ffffff;font-family:Calibri;font-size:0.916672em}
		.st9 {font-size:1em}
		.st10 {marker-end:url(#mrkr4-35);marker-start:url(#mrkr4-33);stroke:#00a9ce;stroke-linecap:butt;stroke-width:1}
		.st11 {fill:#00a9ce;fill-opacity:1;stroke:#00a9ce;stroke-opacity:1;stroke-width:0.28409090909091}
		.st12 {fill:none;stroke:none;stroke-width:1}
		.st13 {fill:#333f48;font-family:Arial;font-size:0.916672em}
		.st14 {fill:#768692;stroke:none;stroke-width:1}
		.st15 {fill:#ffffff;font-family:Arial;font-size:1.00001em}
		.st16 {fill:#ffffff;font-family:Arial;font-size:0.916672em}
		.st17 {fill:#ffffff;font-family:Calibri;font-size:1.00001em}
		.st18 {font-family:Arial;font-size:0.916665em}
		.st19 {fill:none;fill-rule:evenodd;font-size:12px;overflow:visible;stroke-linecap:square;stroke-miterlimit:3}
	]]>
	</style>

	<defs id="Markers">
		<g id="lend4">
			<path d="M 2 1 L 0 0 L 2 -1 L 2 1 " style="stroke:none"/>
		</g>
		<marker id="mrkr4-33" class="st11" refX="6.68" orient="auto" markerUnits="strokeWidth" overflow="visible">
			<use xlink:href="#lend4" transform="scale(3.52) "/>
		</marker>
		<marker id="mrkr4-35" class="st11" refX="-7.04" orient="auto" markerUnits="strokeWidth" overflow="visible">
			<use xlink:href="#lend4" transform="scale(-3.52,-3.52) "/>
		</marker>
	</defs>
	<g>
		<title>Page-1</title>
		<g id="shape44-1" transform="translate(1,-1)">
			<title>Nordic Sky</title>
			<desc>nRF54L15 Application Core</desc>
			<rect x="0" y="1.99999" width="565.019" height="536.411" class="st1"/>
			<text x="184.23" y="529.61" class="st2">nRF54L15 Application Core</text>		</g>
		<g id="shape22-4" transform="translate(12.4434,-467.708)">
			<title>Nordic Blueslate</title>
			<desc>Application + Matter stack</desc>
			<rect x="0" y="479.682" width="539.272" height="58.7284" class="st3"/>
			<text x="189.29" y="513.25" class="st4">Application + Matter stack</text>		</g>
		<g id="shape20-7" transform="translate(12.4434,-75.3823)">
			<title>Nordic Blue</title>
			<desc>Secure storage</desc>
			<rect x="0" y="419.363" width="539.272" height="119.048" class="st5"/>
			<text x="215.38" y="529.61" class="st6">Secure storage</text>		</g>
		<g id="shape8-10" transform="translate(25.392,-107.472)">
			<title>Sheet.8</title>
			<desc>Key management</desc>
			<path d="M0 462.24 L0 538.41 L124.92 538.41 L124.92 462.24 L0 462.24 L0 462.24 Z" class="st7"/>
			<text x="23.39" y="503.63" class="st8">Key management</text>		</g>
		<g id="shape17-13" transform="translate(154.878,-107.472)">
			<title>Sheet.17</title>
			<desc>Cryptography</desc>
			<path d="M0 462.24 L0 538.41 L124.92 538.41 L124.92 462.24 L0 462.24 L0 462.24 Z" class="st7"/>
			<text x="32.08" y="503.63" class="st8">Cryptography</text>		</g>
		<g id="shape18-16" transform="translate(284.364,-107.789)">
			<title>Sheet.18</title>
			<desc>Cryptographically Secure Pseudorandom Number Generator</desc>
			<path d="M0 462.24 L0 538.41 L124.92 538.41 L124.92 462.24 L0 462.24 L0 462.24 Z" class="st7"/>
			<text x="6.95" y="490.43" class="st8">Cryptographically Secure <tspan x="8.8" dy="1.2em" class="st9">Pseudorandom Number </tspan><tspan
						x="39.41" dy="1.2em" class="st9">Generator</tspan></text>		</g>
		<g id="shape19-21" transform="translate(413.851,-107.789)">
			<title>Sheet.19</title>
			<desc>Trusted Firmware-M</desc>
			<path d="M0 462.24 L0 538.41 L124.92 538.41 L124.92 462.24 L0 462.24 L0 462.24 Z" class="st7"/>
			<text x="16.4" y="503.63" class="st8">Trusted Firmware-M</text>		</g>
		<g id="shape25-24" transform="translate(13.1587,-31.082)">
			<title>Nordic Blue.25</title>
			<desc>Device Firmware Update</desc>
			<rect x="0" y="501.263" width="539.272" height="37.1482" class="st5"/>
			<text x="181.61" y="524.64" class="st6">Device Firmware Update</text>		</g>
		<g id="shape35-27" transform="translate(409.28,-383.775)">
			<title>Dynamic connector</title>
			<path d="M6.68 538.41 L7.04 538.41 L57.89 538.41 L57.89 720.72" class="st10"/>
		</g>
		<g id="shape39-36" transform="translate(403.492,-279.191)">
			<title>Sheet.39</title>
			<desc>PSA Crypto API</desc>
			<rect x="0" y="516.489" width="109.682" height="21.9217" class="st12"/>
			<text x="-566.58" y="58.14" transform="rotate(-90)" class="st13">PSA Crypto API</text>		</g>
		<g id="shape40-39" transform="translate(513.863,-467.708)">
			<title>Dynamic connector.40</title>
			<path d="M-7.09 545.09 L-7.09 545.45 L-7.09 803.04" class="st10"/>
		</g>
		<g id="shape41-46" transform="translate(442.033,-279.191)">
			<title>Sheet.41</title>
			<desc>PSA Crypto API</desc>
			<rect x="0" y="516.489" width="109.682" height="21.9217" class="st12"/>
			<text x="-566.58" y="58.14" transform="rotate(-90)" class="st13">PSA Crypto API</text>		</g>
		<g id="shape23-49" transform="translate(12.4434,-423.744)">
			<title>Nordic Middle Grey</title>
			<desc>Zephyr integration</desc>
			<rect x="0" y="501.263" width="396.837" height="37.1482" class="st14"/>
			<text x="142" y="524.04" class="st4">Zephyr integration</text>		</g>
		<g id="shape26-52" transform="translate(12.4434,-203.023)">
			<title>Nordic Blue.26</title>
			<desc>Multiprotocol Service Layer (MPSL)</desc>
			<rect x="0" y="501.263" width="398.056" height="37.1482" class="st5"/>
			<text x="88.94" y="524.04" class="st4">Multiprotocol Service Layer (MPSL)</text>		</g>
		<g id="shape27-55" transform="translate(214.29,-350.622)">
			<title>Nordic Blue.27</title>
			<desc>Thread stack (OpenThread)</desc>
			<rect x="0" y="472.105" width="194.991" height="66.3059" class="st5"/>
			<text x="23.46" y="508.86" class="st15">Thread stack (OpenThread)</text>		</g>
		<g id="shape28-58" transform="translate(215.508,-321.885)">
			<title>Nordic Middle Grey.28</title>
			<desc>Zephyr integration</desc>
			<rect x="0" y="516.489" width="194.991" height="21.9217" class="st14"/>
			<text x="49.13" y="531.05" class="st15">Zephyr integration</text>		</g>
		<g id="shape29-61" transform="translate(215.508,-248.763)">
			<title>Nordic Blue.29</title>
			<desc>nRF IEEE 802.15.4 radio driver</desc>
			<rect x="0" y="472.105" width="194.991" height="66.3059" class="st5"/>
			<text x="50.11" y="486.01" class="st16">nRF IEEE 802.15.4<tspan x="69.98" dy="1.2em" class="st9">radio driver</tspan></text>		</g>
		<g id="shape30-65" transform="translate(12.4434,-248.763)">
			<title>Nordic Blue.30</title>
			<desc>Bluetooth速 LE stack</desc>
			<rect x="0" y="370.246" width="194.991" height="168.165" class="st5"/>
			<text x="43.04" y="405.05" class="st15">Bluetooth速 LE stack</text>		</g>
		<g id="shape31-68" transform="translate(222.516,-257.269)">
			<title>Sheet.31</title>
			<desc>IEEE 802.15.4 PHY</desc>
			<path d="M0 516.49 L0 538.41 L180.98 538.41 L180.98 516.49 L0 516.49 L0 516.49 Z" class="st7"/>
			<text x="46.44" y="531.05" class="st17">IEEE 802.15.4 PHY</text>		</g>
		<g id="shape32-71" transform="translate(19.4509,-294.761)">
			<title>Sheet.32</title>
			<desc>nRF Bluetooth速 LE Controller</desc>
			<path d="M0 489.37 L0 538.41 L180.98 538.41 L180.98 489.37 L0 489.37 L0 489.37 Z" class="st7"/>
			<text x="43.38" y="510.29" class="st17">nRF Bluetooth<tspan class="st18">速 LE</tspan><tspan x="65.88" dy="1.2em"
						class="st9">Controller</tspan></text>		</g>
	</g>
</svg>
