<?xml version="1.0" encoding="UTF-8" standalone="no"?>
<!DOCTYPE svg PUBLIC "-//W3C//DTD SVG 1.1//EN" "http://www.w3.org/Graphics/SVG/1.1/DTD/svg11.dtd">
<!-- Generated by Microsoft Visio, SVG Export core_spec_configs.svg Page-1 -->
<svg xmlns="http://www.w3.org/2000/svg" xmlns:xlink="http://www.w3.org/1999/xlink" xmlns:ev="http://www.w3.org/2001/xml-events"
		width="7.04428in" height="5.32237in" viewBox="0 0 507.188 383.211" xml:space="preserve" color-interpolation-filters="sRGB"
		class="st10">
	<style type="text/css">
	<![CDATA[
		.st1 {fill:#0077c8;stroke:none;stroke-width:1}
		.st2 {fill:#ffffff;font-family:Arial;font-size:0.916672em}
		.st3 {fill:#d0df00;stroke:none;stroke-width:1}
		.st4 {fill:#ffcd00;stroke:none;stroke-width:1}
		.st5 {marker-end:url(#mrkr4-48);stroke:#000000;stroke-linecap:butt;stroke-width:1}
		.st6 {fill:#000000;fill-opacity:1;stroke:#000000;stroke-opacity:1;stroke-width:0.28409090909091}
		.st7 {fill:none;stroke:#333f48;stroke-width:1}
		.st8 {fill:#000000;font-family:Arial;font-size:0.75em}
		.st9 {font-size:1em}
		.st10 {fill:none;fill-rule:evenodd;font-size:12px;overflow:visible;stroke-linecap:square;stroke-miterlimit:3}
	]]>
	</style>

	<defs id="Markers">
		<g id="lend4">
			<path d="M 2 1 L 0 0 L 2 -1 L 2 1 " style="stroke:none"/>
		</g>
		<marker id="mrkr4-48" class="st6" refX="-7.04" orient="auto" markerUnits="strokeWidth" overflow="visible">
			<use xlink:href="#lend4" transform="scale(-3.52,-3.52) "/>
		</marker>
	</defs>
	<g>
		<title>Page-1</title>
		<g id="shape5-1" transform="translate(1.68231,-358.752)">
			<title>Nordic Sky</title>
			<desc>nrf54h20dk_nrf54h20_cpuapp.dts</desc>
			<rect x="0" y="359.752" width="172.852" height="23.4591" class="st1"/>
			<text x="4.16" y="374.78" class="st2">nrf54h20dk_nrf54h20_cpuapp.dts</text>		</g>
		<g id="shape11-4" transform="translate(44.202,-314.033)">
			<title>Nordic Sky.11</title>
			<desc>nrf54h20dk_nrf54h20_cpuapp-pinctrl.dtsi</desc>
			<rect x="0" y="359.752" width="211.572" height="23.4591" class="st1"/>
			<text x="5.8" y="374.78" class="st2">nrf54h20dk_nrf54h20_cpuapp-pinctrl.dtsi</text>		</g>
		<g id="shape12-7" transform="translate(44.202,-269.314)">
			<title>Nordic Sky.12</title>
			<desc>nrf54h20_cpuapp.dtsi</desc>
			<rect x="0" y="359.752" width="130.333" height="23.4591" class="st3"/>
			<text x="12.26" y="374.78" class="st2">nrf54h20_cpuapp.dtsi</text>		</g>
		<g id="shape13-10" transform="translate(86.5975,-224.595)">
			<title>Nordic Sky.13</title>
			<desc>nrf54h20.dtsi</desc>
			<rect x="0" y="359.752" width="87.9371" height="23.4591" class="st4"/>
			<text x="12.17" y="374.78" class="st2">nrf54h20.dtsi</text>		</g>
		<g id="shape14-13" transform="translate(130.214,-179.876)">
			<title>Nordic Sky.14</title>
			<desc>haltium_common.dtsi</desc>
			<rect x="0" y="359.752" width="129.36" height="23.4591" class="st4"/>
			<text x="12.71" y="374.78" class="st2">haltium_common.dtsi</text>		</g>
		<g id="shape15-16" transform="translate(85.6953,-135.157)">
			<title>Nordic Sky.15</title>
			<desc>nrf54h20_shared_memory_*.dtsi</desc>
			<rect x="0" y="359.752" width="173.879" height="23.4591" class="st4"/>
			<text x="7.14" y="374.78" class="st2">nrf54h20_shared_memory_*.dtsi</text>		</g>
		<g id="shape16-19" transform="translate(85.6953,-90.4379)">
			<title>Nordic Sky.16</title>
			<desc>haltium_cpuapp_common.dtsi</desc>
			<rect x="0" y="359.752" width="173.879" height="23.4591" class="st3"/>
			<text x="13.87" y="374.78" class="st2">haltium_cpuapp_common.dtsi</text>		</g>
		<g id="shape17-22" transform="translate(124.318,-45.719)">
			<title>Nordic Sky.17</title>
			<desc>haltium_cpuapp_local.dtsi</desc>
			<rect x="0" y="359.752" width="135.256" height="23.4591" class="st3"/>
			<text x="4.34" y="374.78" class="st2">haltium_cpuapp_local.dtsi</text>		</g>
		<g id="shape18-25" transform="translate(163.648,-1)">
			<title>Nordic Sky.18</title>
			<desc>haltium_cpuapp_peripherals.dtsi</desc>
			<rect x="0" y="359.752" width="170.079" height="23.4591" class="st3"/>
			<text x="5.85" y="374.78" class="st2">haltium_cpuapp_peripherals.dtsi</text>		</g>
		<g id="shape19-28" transform="translate(305.894,-268.671)">
			<title>Nordic Sky.19</title>
			<desc>nrf_common.dtsi</desc>
			<rect x="0" y="359.752" width="200.295" height="23.4591" class="st4"/>
			<text x="59.49" y="374.78" class="st2">nrf_common.dtsi</text>		</g>
		<g id="shape20-31" transform="translate(305.894,-223.952)">
			<title>Nordic Sky.20</title>
			<desc>haltium_global_peripherals.dtsi</desc>
			<rect x="0" y="359.752" width="200.295" height="23.4591" class="st4"/>
			<text x="24.32" y="374.78" class="st2">haltium_global_peripherals.dtsi</text>		</g>
		<g id="shape21-34" transform="translate(305.894,-179.233)">
			<title>Nordic Sky.21</title>
			<desc>haltium_global_peripherals_virtual.dtsi</desc>
			<rect x="0" y="359.752" width="200.295" height="23.4591" class="st4"/>
			<text x="6.59" y="374.78" class="st2">haltium_global_peripherals_virtual.dtsi</text>		</g>
		<g id="shape22-37" transform="translate(305.894,-134.514)">
			<title>Nordic Sky.22</title>
			<desc>haltium_global_memory.dtsi</desc>
			<rect x="0" y="359.752" width="200.295" height="23.4591" class="st4"/>
			<text x="31.67" y="374.78" class="st2">haltium_global_memory.dtsi</text>		</g>
		<g id="shape23-40" transform="translate(305.894,-89.7947)">
			<title>Nordic Sky.23</title>
			<desc>haltium_tdd_peripherals.dtsi</desc>
			<rect x="0" y="359.752" width="200.295" height="23.4591" class="st4"/>
			<text x="31.36" y="374.78" class="st2">haltium_tdd_peripherals.dtsi</text>		</g>
		<g id="shape26-43" transform="translate(20,-358.752)">
			<title>Dynamic connector</title>
			<path d="M0 383.21 L0 416.2 L17.16 416.2" class="st5"/>
		</g>
		<g id="shape27-49" transform="translate(20,-358.752)">
			<title>Dynamic connector.27</title>
			<path d="M0 383.21 L0 460.92 L17.16 460.92" class="st5"/>
		</g>
		<g id="shape28-54" transform="translate(63.4273,-269.314)">
			<title>Dynamic connector.28</title>
			<path d="M0 383.21 L0 416.2 L16.13 416.2" class="st5"/>
		</g>
		<g id="shape29-59" transform="translate(63.4273,-269.314)">
			<title>Dynamic connector.29</title>
			<path d="M0 383.21 L0 505.64 L15.23 505.64" class="st5"/>
		</g>
		<g id="shape30-64" transform="translate(63.4273,-269.314)">
			<title>Dynamic connector.30</title>
			<path d="M0 383.21 L0 550.36 L15.23 550.36" class="st5"/>
		</g>
		<g id="shape31-69" transform="translate(106.872,-224.595)">
			<title>Dynamic connector.31</title>
			<path d="M0 383.21 L0 416.2 L16.3 416.2" class="st5"/>
		</g>
		<g id="shape32-74" transform="translate(105.981,-90.4379)">
			<title>Dynamic connector.32</title>
			<path d="M0 383.21 L0 416.2 L11.3 416.2" class="st5"/>
		</g>
		<g id="shape33-79" transform="translate(149.451,-45.719)">
			<title>Dynamic connector.33</title>
			<path d="M0 383.21 L0 416.2 L7.16 416.2" class="st5"/>
		</g>
		<g id="shape34-84" transform="translate(259.574,-191.605)">
			<title>Dynamic connector.34</title>
			<path d="M0 383.21 L19.84 383.21 L19.84 294.42 L39.28 294.42" class="st5"/>
		</g>
		<g id="shape35-89" transform="translate(259.574,-191.605)">
			<title>Dynamic connector.35</title>
			<path d="M0 383.21 L19.84 383.21 L19.84 473.29 L39.28 473.29" class="st5"/>
		</g>
		<g id="shape36-94" transform="translate(259.574,-191.605)">
			<title>Dynamic connector.36</title>
			<path d="M0 383.21 L19.84 383.21 L19.84 339.14 L39.28 339.14" class="st5"/>
		</g>
		<g id="shape37-99" transform="translate(259.574,-184.547)">
			<title>Dynamic connector.37</title>
			<path d="M0 376.15 L39.28 376.1" class="st5"/>
		</g>
		<g id="shape38-104" transform="translate(259.574,-191.605)">
			<title>Dynamic connector.38</title>
			<path d="M0 383.21 L19.84 383.21 L19.84 428.57 L39.28 428.57" class="st5"/>
		</g>
		<g id="shape39-109" transform="translate(391.8,-2.22168)">
			<title>Nordic Blue</title>
			<desc>ic-next/boards/&#60;arch&#62; ic-next/dts/common ic-next/dts/&#60;arch&#62;</desc>
			<rect x="0" y="320.702" width="114.388" height="62.5088" class="st7"/>
			<text x="21.53" y="333.06" class="st8">ic-next/boards/&#60;arch&#62;  <tspan x="21.53" dy="2.4em" class="st9">ic</tspan>-next/dts/common  <tspan
						x="21.53" dy="2.4em" class="st9">ic</tspan>-next/dts/&#60;arch&#62;</text>		</g>
		<g id="shape40-114" transform="translate(394.966,-47.7226)">
			<title>Nordic Lake</title>
			<rect x="0" y="369.038" width="14.1732" height="14.1732" class="st1"/>
		</g>
		<g id="shape41-116" transform="translate(394.891,-26.3895)">
			<title>Nordic Sun</title>
			<rect x="0" y="369.038" width="14.1732" height="14.1732" class="st4"/>
		</g>
		<g id="shape42-118" transform="translate(394.816,-5.20292)">
			<title>Nordic Grass</title>
			<rect x="0" y="369.038" width="14.1732" height="14.1732" class="st3"/>
		</g>
	</g>
</svg>
